HIERARCHY
ROOT Hips
{
	OFFSET 0.000000 0.000000 0.000000
	CHANNELS 6 Xposition Yposition Zposition Xrotation Yrotation Zrotation
	JOINT LeftUpLeg_virtual
	{
		OFFSET 0.000000 0.000000 0.000000
		CHANNELS 3 Xrotation Yrotation Zrotation
		JOINT LeftUpLeg
		{
			OFFSET 15.427100 -6.655098 0.678600
			CHANNELS 3 Xrotation Yrotation Zrotation
			JOINT LeftLeg
			{
				OFFSET 4.081073 -39.591068 13.024000
				CHANNELS 3 Xrotation Yrotation Zrotation
				JOINT LeftFoot
				{
					OFFSET -4.081074 -37.707932 -15.979700
					CHANNELS 3 Xrotation Yrotation Zrotation
					JOINT LeftToeBase
					{
						OFFSET 5.346399 -15.068900 20.645000
						CHANNELS 3 Xrotation Yrotation Zrotation
						JOINT LeftToe_End
						{
							OFFSET 2.754700 0.931300 11.300900
							CHANNELS 3 Xrotation Yrotation Zrotation
							End Site
							{
								OFFSET 0 0 0
							}
						}
					}
				}
			}
		}
	}
	JOINT RightUpLeg_virtual
	{
		OFFSET 0.000000 0.000000 0.000000
		CHANNELS 3 Xrotation Yrotation Zrotation
		JOINT RightUpLeg
		{
			OFFSET -15.569500 -6.655098 0.678600
			CHANNELS 3 Xrotation Yrotation Zrotation
			JOINT RightLeg
			{
				OFFSET -4.081825 -39.591045 13.023800
				CHANNELS 3 Xrotation Yrotation Zrotation
				JOINT RightFoot
				{
					OFFSET 4.081824 -37.707954 -15.979600
					CHANNELS 3 Xrotation Yrotation Zrotation
					JOINT RightToeBase
					{
						OFFSET -5.346400 -15.068900 20.645000
						CHANNELS 3 Xrotation Yrotation Zrotation
						JOINT RightToe_End
						{
							OFFSET -2.754700 0.931300 11.300900
							CHANNELS 3 Xrotation Yrotation Zrotation
							End Site
							{
								OFFSET 0 0 0
							}
						}
					}
				}
			}
		}
	}
	JOINT Spine_virtual
	{
		OFFSET 0.000000 0.000000 0.000000
		CHANNELS 3 Xrotation Yrotation Zrotation
		JOINT Spine
		{
			OFFSET -0.279200 12.230698 -2.892100
			CHANNELS 3 Xrotation Yrotation Zrotation
			JOINT Spine1
			{
				OFFSET -0.232667 10.192268 -1.242267
				CHANNELS 3 Xrotation Yrotation Zrotation
				JOINT Spine1_split
				{
					OFFSET -0.232667 10.192268 -1.242267
					CHANNELS 3 Xrotation Yrotation Zrotation
					JOINT Spine2
					{
						OFFSET -0.232667 10.192268 -1.242267
						CHANNELS 3 Xrotation Yrotation Zrotation
						JOINT Neck_virtual
						{
							OFFSET 0.000000 0.000000 0.000000
							CHANNELS 3 Xrotation Yrotation Zrotation
							JOINT Neck
							{
								OFFSET -0.418800 17.814194 8.416900
								CHANNELS 3 Xrotation Yrotation Zrotation
								JOINT Head
								{
									OFFSET 0.000000 7.031097 3.806800
									CHANNELS 3 Xrotation Yrotation Zrotation
									JOINT HeadTop_End
									{
										OFFSET 0.000000 24.646606 12.978600
										CHANNELS 3 Xrotation Yrotation Zrotation
										End Site
										{
											OFFSET 0 0 0
										}
									}
								}
							}
						}
						JOINT LeftShoulder_virtual
						{
							OFFSET 0.000000 0.000000 0.000000
							CHANNELS 3 Xrotation Yrotation Zrotation
							JOINT LeftShoulder
							{
								OFFSET 8.476499 7.247704 -3.868750
								CHANNELS 3 Xrotation Yrotation Zrotation
								JOINT LeftShoulder_split
								{
									OFFSET 8.476499 7.247704 -3.868750
									CHANNELS 3 Xrotation Yrotation Zrotation
									JOINT LeftArm
									{
										OFFSET 9.308998 -2.777710 0.208600
										CHANNELS 3 Xrotation Yrotation Zrotation
										JOINT LeftForeArm
										{
											OFFSET 29.972298 0.000000 0.000000
											CHANNELS 3 Xrotation Yrotation Zrotation
											JOINT LeftHand
											{
												OFFSET 26.026505 0.000000 0.000000
												CHANNELS 3 Xrotation Yrotation Zrotation
												End Site
												{
													OFFSET 0 0 0
												}
											}
										}
									}
								}
							}
						}
						JOINT RightShoulder_virtual
						{
							OFFSET 0.000000 0.000000 0.000000
							CHANNELS 3 Xrotation Yrotation Zrotation
							JOINT RightShoulder
							{
								OFFSET -7.570500 7.247704 -3.868750
								CHANNELS 3 Xrotation Yrotation Zrotation
								JOINT RightShoulder_split
								{
									OFFSET -7.570500 7.247704 -3.868750
									CHANNELS 3 Xrotation Yrotation Zrotation
									JOINT RightArm
									{
										OFFSET -9.308998 -2.777710 0.208500
										CHANNELS 3 Xrotation Yrotation Zrotation
										JOINT RightForeArm
										{
											OFFSET -29.972300 0.000000 0.000000
											CHANNELS 3 Xrotation Yrotation Zrotation
											JOINT RightHand
											{
												OFFSET -26.026505 0.000000 0.000000
												CHANNELS 3 Xrotation Yrotation Zrotation
												End Site
												{
													OFFSET 0 0 0
												}
											}
										}
									}
								}
							}
						}
					}
				}
			}
		}
	}
}
MOTION
Frames: 5
Frame Time: 0.03333333
2.195107 72.838989 -1.714691 0.000000 0.000000 0.000000 -5.400172 -46.432087 -0.526811 -34.255506 5.085941 20.300792 56.771696 -7.634033 3.672673 -20.133017 -7.078554 -17.222800 -1.594039 -0.000009 0.000004 0.000000 0.000000 0.000000 -5.400172 -46.432087 -0.526811 -19.408590 -8.980185 -34.667616 57.008003 -2.876313 -4.766477 -26.306586 -10.338664 26.246277 -0.012997 0.000006 -0.000003 0.000000 0.000000 0.000000 -5.400172 -46.432087 -0.526811 9.420037 7.435522 -1.366546 2.187716 0.989899 -0.915630 0.000000 0.000000 0.000000 0.000000 0.000000 0.000000 2.202829 0.982771 -0.894153 0.084654 13.220554 4.538680 8.920923 20.138142 -4.130236 0.000000 0.000000 0.000000 2.202829 0.982771 -0.894153 1.117178 3.546351 -8.633308 0.000000 0.000000 0.000000 -53.487003 4.935514 -51.502990 179.999937 -73.641918 179.999950 0.000000 0.000000 0.000000 2.202829 0.982771 -0.894153 3.036128 13.027199 -5.371408 0.000000 0.000000 0.000000 -48.713719 27.172827 83.457091 -179.999868 74.011698 179.999868 0.000000 0.000000 0.000000 
2.450879 71.735558 -0.717937 0.000000 0.000000 0.000000 -4.838977 -47.079138 -0.204742 -35.071396 4.775908 20.112964 59.547925 -7.179173 3.566616 -21.786043 -6.274905 -16.780433 -1.953565 0.000018 0.000001 0.000000 0.000000 0.000000 -4.838977 -47.079138 -0.204742 -20.634922 -8.510374 -35.762696 58.067591 -1.122480 -4.777716 -26.572451 -10.953008 26.244823 -0.009095 -0.000014 -0.000002 0.000000 0.000000 0.000000 -4.838977 -47.079138 -0.204742 9.919030 7.711497 -1.846423 1.916819 1.031762 -0.894298 0.000000 0.000000 0.000000 0.000000 0.000000 0.000000 1.931407 1.025008 -0.876845 0.148176 13.275047 4.803503 8.434760 20.259429 -3.299768 0.000000 0.000000 0.000000 1.931407 1.025008 -0.876845 1.110769 3.630399 -8.655378 0.000000 0.000000 0.000000 -52.841765 5.112477 -51.141683 -179.999896 -73.431972 -179.999896 0.000000 0.000000 0.000000 1.931407 1.025008 -0.876845 3.169173 13.274905 -5.296749 0.000000 0.000000 0.000000 -48.735742 27.444511 83.446149 179.999950 74.154257 -179.999991 0.000000 0.000000 0.000000 
2.850668 70.083694 0.606281 0.000000 0.000000 0.000000 -4.760054 -48.028777 -0.154380 -36.445148 4.155551 20.193972 63.981339 -6.570033 3.621988 -23.185395 -6.130679 -17.468678 -3.282871 -0.000011 -0.000006 0.000000 0.000000 0.000000 -4.760054 -48.028777 -0.154380 -22.112193 -7.821379 -37.359352 59.686571 1.363650 -5.156986 -26.999330 -11.701431 26.364286 0.055615 -0.000007 0.044002 0.000000 0.000000 0.000000 -4.760054 -48.028777 -0.154380 10.825269 7.987245 -1.916346 1.532799 1.076094 -0.997168 0.000000 0.000000 0.000000 0.000000 0.000000 0.000000 1.549267 1.064459 -0.986854 0.226157 13.411178 5.018148 7.791677 20.556330 -2.405645 0.000000 0.000000 0.000000 1.549267 1.064459 -0.986854 1.121901 3.790810 -8.776299 0.000000 0.000000 0.000000 -51.604074 5.785263 -50.502914 -179.999937 -72.464803 -179.999950 0.000000 0.000000 0.000000 1.549267 1.064459 -0.986854 3.247804 13.568189 -5.304377 0.000000 0.000000 0.000000 -48.562078 27.955828 83.361270 179.999923 74.257987 -179.999909 0.000000 0.000000 0.000000 
3.471535 67.777992 2.451786 0.000000 0.000000 0.000000 -5.294340 -49.173278 -0.516041 -38.970621 2.695839 20.705966 70.683087 -6.473680 3.736428 -23.387929 -6.987879 -20.157674 -5.940909 -0.025329 1.005734 0.000000 0.000000 0.000000 -5.294340 -49.173278 -0.516041 -23.596635 -6.838606 -39.627265 61.717985 4.655836 -5.930261 -27.457861 -12.661294 26.830981 0.121072 -0.000089 0.091522 0.000000 0.000000 0.000000 -5.294340 -49.173278 -0.516041 12.439042 8.382909 -1.479582 0.995853 1.138771 -1.199805 0.000000 0.000000 0.000000 0.000000 0.000000 0.000000 1.016575 1.114876 -1.201560 0.302734 13.587383 5.199545 7.304530 20.933606 -1.731038 0.000000 0.000000 0.000000 1.016575 1.114876 -1.201560 1.177510 3.931812 -9.010045 0.000000 0.000000 0.000000 -49.846321 7.032365 -49.753625 -179.999855 -71.166978 -179.999868 0.000000 0.000000 0.000000 1.016575 1.114876 -1.201560 3.139969 13.746665 -5.470687 0.000000 0.000000 0.000000 -48.025427 28.850531 83.319893 -179.999868 74.486047 179.999855 0.000000 0.000000 0.000000 
4.304571 64.966377 4.897194 0.000000 0.000000 0.000000 -6.280872 -50.565632 -1.193322 -42.712281 0.143072 22.030724 78.670037 -7.529821 3.418022 -21.342931 -9.686404 -24.379923 -10.456387 -0.539941 4.572932 0.000000 0.000000 0.000000 -6.280872 -50.565632 -1.193322 -25.031410 -5.432045 -42.675647 63.725849 8.649254 -6.842710 -27.564933 -13.723592 27.714727 0.146794 -0.000073 0.110172 0.000000 0.000000 0.000000 -6.280872 -50.565632 -1.193322 14.346864 8.924675 -0.692554 0.424837 1.216731 -1.428605 0.000000 0.000000 0.000000 0.000000 0.000000 0.000000 0.450685 1.174180 -1.444917 0.205577 13.834947 5.409456 7.350726 21.656877 -1.627161 0.000000 0.000000 0.000000 0.450685 1.174180 -1.444917 1.261339 4.095655 -9.344288 0.000000 0.000000 0.000000 -47.712211 8.648734 -48.870372 -179.999923 -69.606260 -179.999909 0.000000 0.000000 0.000000 0.450685 1.174180 -1.444917 2.992457 13.783375 -5.631407 0.000000 0.000000 0.000000 -47.719123 30.227938 83.551341 179.999841 75.093026 -179.999855 0.000000 0.000000 0.000000 
